<svg xmlns="http://www.w3.org/2000/svg" viewBox="-6907 -654.37 20 16">
  <defs>
    <style>
      .cls-1 {
        fill: #86929a;
      }
    </style>
  </defs>
  <g id="comment" transform="translate(-6907 -657.953)">
    <path id="Path_508" data-name="Path 508" class="cls-1" d="M0,19.583V9.333a5.631,5.631,0,0,1,5.489-5.75H14.51A5.631,5.631,0,0,1,20,9.333V11.1a5.631,5.631,0,0,1-5.489,5.75H5.616ZM5.489,4.865A4.375,4.375,0,0,0,1.224,9.333v8.241l4.123-2.006h9.164A4.375,4.375,0,0,0,18.776,11.1V9.332A4.376,4.376,0,0,0,14.51,4.864H5.489Zm.4,4.37a1.22,1.22,0,1,1-1.164,1.219A1.192,1.192,0,0,1,5.893,9.235Zm8.214,0a1.22,1.22,0,1,1-1.164,1.219A1.192,1.192,0,0,1,14.107,9.235ZM10,9.235a1.22,1.22,0,1,1-1.164,1.219A1.192,1.192,0,0,1,10,9.235Z" transform="translate(0 0)"/>
  </g>
</svg>
